<?xml version="1.0" encoding="UTF-8"?> <svg xmlns="http://www.w3.org/2000/svg" width="199" height="250" viewBox="0 0 199 250" fill="none"> <g clip-path="url(#clip0_1144_421)"> <path d="M77.26 52.2801C76.92 56.5101 87.82 60.9701 87.82 44.1201C87.82 44.1201 87.39 47.1701 85.39 49.7101C85.76 48.1501 85.83 47.7101 86.01 46.6101C85.39 49.7101 82.2 54.5401 77.27 52.2801H77.26Z" fill="#D2B37C"></path> <path d="M97.48 39.7601C97.48 39.7601 94.36 39.7201 93.14 38.7101C90.97 36.9201 91.6 36.4001 89.6 35.0601C90.64 34.9401 91.79 35.4101 93.67 36.5301C91.87 34.7801 88.0399 33.1901 88.3099 33.2201C96.1199 34.2801 96.1 39.4401 97.48 39.7501V39.7601Z" fill="#D2B37C"></path> <path d="M85.77 34.6599C86.18 34.7599 88.93 37.2399 90.23 39.5499C89.87 37.3599 89.25 36.6899 87.99 35.4399C93.2 38.3299 93.38 46.8499 88.95 48.4499C90.49 41.1299 85.77 41.5499 85.77 34.6499V34.6599Z" fill="#D2B37C"></path> <path d="M83.63 36.5602C85.31 37.7702 89.56 44.4202 83.12 47.5302C83.12 47.5302 85.77 40.6802 78.49 34.2202C78.49 34.2202 83.75 37.2202 85.09 40.1002C84.26 37.1402 83.63 36.5602 83.63 36.5602Z" fill="#D2B37C"></path> <path d="M79.77 37.0499C79.77 37.0499 72.98 36.5999 72.77 41.2199C72.77 41.2199 69.98 37.2599 75.58 34.8099C76.5 34.4099 77.59 34.6399 78.26 35.3899L79.77 37.0599V37.0499Z" fill="#D2B37C"></path> <path d="M66.3101 34.4799C66.3101 34.4799 67.2401 32.1699 72.6101 33.8499C73.2001 34.0399 73.7901 34.1699 74.3901 33.9999C75.1001 33.7899 75.9101 33.5699 76.8201 33.3699C76.8201 33.3699 71.1501 31.0899 69.4101 27.7099C69.4101 27.7099 66.3501 26.4999 64.8201 28.8199C63.8601 30.3899 64.1801 33.1899 66.3101 34.4799ZM68.1501 31.5599C68.1501 31.0999 68.5201 30.7299 68.9801 30.7299C69.4401 30.7299 69.8101 31.0999 69.8101 31.5599C69.8101 32.0199 69.4401 32.3899 68.9801 32.3899C68.5201 32.3899 68.1501 32.0199 68.1501 31.5599Z" fill="#D2B37C"></path> <path d="M74.6101 30.8501C73.7001 30.4301 71.1101 29.0301 70.5501 27.7301C70.1301 26.8201 70.5501 26.0401 71.2601 25.9101C71.2001 26.3701 71.3701 27.1801 72.0801 27.6201C71.9201 26.9701 71.7601 25.6601 72.5801 25.5601C72.6201 27.4001 72.9801 28.8501 74.6201 30.8501H74.6101Z" fill="#D2B37C"></path> <path d="M73.88 25.5902C73.88 33.2102 84.73 35.8402 84.73 35.8402C84.26 34.2202 84.38 33.2102 84.38 33.2102C85.8 34.0002 88.15 34.4702 88.15 34.4702C87.08 32.9302 87.03 31.5602 87.03 31.5602C87.56 32.1302 89.64 33.1902 92.56 33.5802C95.39 33.9602 97.68 32.6302 97.68 32.6302C93.47 32.0802 90.58 30.0102 90.58 30.0102C95.5 29.3302 95.92 23.9502 95.92 23.9502C89.64 28.2002 73.89 25.5802 73.89 25.5802L73.88 25.5902ZM76.71 27.9902C78.22 28.1602 79.95 28.3702 82.82 28.2002C82.82 28.2002 78.67 28.2002 78.49 30.3902C76.67 29.5002 76.71 27.9902 76.71 27.9902Z" fill="#D2B37C"></path> <path d="M82.6033 23.841C82.6191 23.4382 80.9766 23.0469 78.9347 22.967C76.8928 22.8871 75.2247 23.1489 75.209 23.5518C75.1932 23.9547 76.8357 24.346 78.8776 24.4259C80.9195 24.5057 82.5875 24.2439 82.6033 23.841Z" fill="#D2B37C"></path> <path d="M76.51 22.3498C76.22 21.9398 74.0399 18.6498 73.8799 17.9598C73.4799 16.2298 76.5499 16.8398 77.0699 17.9798L78.5599 22.2298L76.51 22.3498Z" fill="#D2B37C"></path> <path d="M80.67 17.25C80.65 18.04 79.49 20.49 79.15 21.39C78.8 20.47 77.8 18.04 77.67 17.26C77.41 15.65 80.7 15.41 80.66 17.26L80.67 17.25Z" fill="#D2B37C"></path> <path d="M97.43 20.4202C97.38 20.5302 95.47 20.3702 93.74 21.7602C95.89 21.0302 96.93 21.3002 96.71 21.5902C96.05 22.4502 95.06 23.3902 94.06 23.8602C90.94 25.2702 87.59 24.6202 87.59 24.6202C90.46 18.5202 97.43 20.4302 97.43 20.4302" fill="#D2B37C"></path> <path d="M79.6899 22.2499L81.3399 18.0399C81.8799 17.0099 84.9899 16.4299 84.5299 18.1399C84.3499 18.8199 82.0499 22.0299 81.7499 22.4299L79.6999 22.2399L79.6899 22.2499Z" fill="#D2B37C"></path> <path d="M76.94 11.9201L78.66 11.9501L78.69 10.0601L80.07 10.0801L80.04 11.9701L81.7 12.0001L81.68 13.2201L80.02 13.1901L79.98 15.0501L78.6 15.0301L78.64 13.1601L76.92 13.1301L76.94 11.9201Z" fill="#D2B37C"></path> <path d="M49.4499 89.1998C50.7199 88.7698 51.1199 88.7098 52.3899 88.2998C51.9299 88.4498 43.6199 102.78 43.6199 102.78C46.4899 98.7498 53.4799 89.4098 53.4799 89.4098C53.7199 90.9698 54.0599 92.5998 53.8499 93.2398C53.3099 94.9698 52.1099 96.5498 49.4799 101.76C46.8499 106.92 40.0899 109.37 40.0899 109.37C40.0899 109.37 38.6699 98.7898 48.5399 89.7398C48.7999 89.4998 49.1199 89.3198 49.4499 89.1998Z" fill="#D2B37C"></path> <path d="M40.2 39.8402C36.67 35.7602 33.29 27.6002 26.39 19.7302C32.59 36.3102 42.33 44.7102 43.45 45.9402C42.53 45.5102 39.11 44.2902 39.11 44.2902C30.76 39.2302 23.89 31.0502 20.51 24.5502C17.06 17.9702 18.03 10.5302 18.93 6.47021C22.8 9.76021 28.46 16.2502 30.89 19.7502C32.99 22.8202 35.5 26.7402 37.63 30.5402C39.23 33.3902 40.13 36.5802 40.22 39.8502L40.2 39.8402Z" fill="#D2B37C"></path> <path d="M42.33 61.5199C37.09 60.2999 36.33 56.2799 36.33 56.2799C40.71 55.0799 48.61 56.0399 49.81 57.1999C45.01 56.7599 43.76 56.8699 40.64 57.4399C44.5 57.3199 50.74 58.6299 52.83 61.3799C52.83 61.3799 48.21 62.8899 42.33 61.5199Z" fill="#D2B37C"></path> <path d="M50.46 67.2499C49.08 68.2899 45.8901 69.2499 42.4701 69.2199C39.0501 69.1199 36.05 66.5699 36.05 66.5699C36.76 65.6099 37.46 64.4199 40.14 63.3499C42.86 62.3899 45.6 62.9399 48.19 63.9999C48.19 63.9999 43.26 63.7099 39.91 65.0899C48.19 63.9999 50.4701 67.2499 50.4701 67.2499H50.46Z" fill="#D2B37C"></path> <path d="M52.27 70.95C50.7 74.25 47.52 75.52 44.53 76.15C40.93 76.87 37.42 73.88 37.42 73.88C46.33 68.09 51.03 69.27 53.22 69.65C53.22 69.65 47.41 69.84 42.94 73.1C48.11 70.51 52.27 70.94 52.27 70.94V70.95Z" fill="#D2B37C"></path> <path d="M56.4001 75.2198C56.4001 75.2198 56.4001 75.2298 56.4001 75.2398C48.7701 84.1998 43.8 81.9598 43.8 81.9598C44.24 75.9498 49.76 75.5198 51.51 75.5598C51.51 75.5598 47.72 76.4398 46.6 78.1098C53.75 75.1598 56.4001 75.2198 56.4001 75.2198Z" fill="#D2B37C"></path> <path d="M48.43 88.33C48.43 88.33 47.47 80.56 56.91 78.71C53.33 80.75 51.56 82 50.63 84.52C52.07 82.23 55.06 80.35 57.17 80.15C57.27 86.76 50.95 86.35 48.43 88.33Z" fill="#D2B37C"></path> <path d="M60.79 82.0302C60.79 82.0302 59.26 83.2601 58.45 85.8401C61.35 82.2601 62.32 81.7502 64.65 81.1602C65.12 81.6602 65.38 82.2902 64.99 83.5102C63.58 87.9402 59.47 87.8602 55.17 91.4202C55.17 91.4202 54.2 87.4302 58.65 83.3602C59.26 82.8102 59.95 82.3402 60.74 82.0502L60.79 82.0302Z" fill="#D2B37C"></path> <path d="M72.61 82.8102C73.57 85.6802 70.54 88.8601 68.91 90.1301C66.96 91.6501 66.12 92.7802 66.12 92.7802C65.89 91.8402 65.49 89.6202 65.79 87.7502C66.02 86.1602 66.83 84.4402 67.69 83.6902C68.42 83.0502 68.75 82.8502 69.9 82.1602C69.9 82.1602 68.36 84.4902 67.29 87.5002C69.27 83.5202 72.61 82.8102 72.61 82.8102Z" fill="#D2B37C"></path> <path d="M38.09 51.4402C26.9 49.6102 15.07 40.4002 11.28 35.1502C7.49997 29.9502 8.03997 22.9702 8.03997 22.9702C11.71 23.6502 29.24 38.4302 32.6 41.8902C34.64 43.9902 35.27 45.8802 36.15 47.5802C33.64 44.8102 28.8 41.2002 18.85 34.2702C24.35 38.4302 38.1 51.4402 38.1 51.4402H38.09Z" fill="#D2B37C"></path> <path d="M15.81 60.0298C23.2 60.8698 32.72 62.6998 36.27 64.5298C36.27 64.5298 36.26 64.5398 36.25 64.5498C35.32 65.4798 34.37 65.8898 33.06 65.9498C28.44 66.1398 22.53 66.7398 15.48 65.2198C7.22999 63.4398 -0.0100098 58.3498 -0.0100098 58.3498C2.93999 57.5498 8.69999 57.1198 16.59 57.6498C27.38 58.3498 33.86 60.5098 39.1 62.1098L38.23 62.5898C37.92 62.7598 37.55 62.8298 37.2 62.7798C32.7 62.0398 23.93 59.4698 15.8 60.0498L15.81 60.0298Z" fill="#D2B37C"></path> <path d="M41.5499 70.1502C38.0899 72.4002 29.7999 74.2202 19.4999 74.9402C9.13994 75.7202 3.68994 73.8302 3.68994 73.8302C12.2699 65.5402 35.8399 67.7802 36.8999 68.3902C36.8999 68.3902 36.9199 68.4102 36.9299 68.4102C32.0799 68.4202 27.2499 68.8602 17.2799 71.0102C17.2799 71.0102 31.4799 69.6802 38.6699 69.6302C38.9699 69.6302 39.2499 69.6602 39.5399 69.7202L41.5499 70.1502Z" fill="#D2B37C"></path> <path d="M36.9 74.8902C23.8 76.3102 20.01 80.4602 20.01 80.4602C24.76 77.9002 34.2 75.2602 38.63 76.3302C39.97 76.6502 41.06 77.1002 42.2 77.5002C40.25 78.0502 36.94 79.1002 26.54 83.9802C16.14 88.8402 10.61 87.1802 10.61 87.1802C14.38 80.0102 20.7 77.4502 24.21 76.3602C27.47 75.3702 31.46 74.5302 35.2 74.1602C35.74 74.1102 36.27 74.3002 36.67 74.6702L36.9 74.8902Z" fill="#D2B37C"></path> <path d="M26.74 88.7198C33.38 84.0898 40.43 80.8498 43 80.9998C42.98 81.1198 42.96 81.2698 42.94 81.4298C42.88 81.9298 42.58 82.3698 42.15 82.6298C38.2 85.0998 35.31 88.8098 30.13 92.8298C24.68 96.9998 18.24 96.2298 18.24 96.2298C20.89 88.9998 25.74 85.9098 28.9 84.4798C43.04 78.0798 43.1 79.6098 43.01 79.7498C43.01 79.7498 31.52 83.0498 26.73 88.7198H26.74Z" fill="#D2B37C"></path> <path d="M47.03 86.4901C46.63 88.2801 43.14 92.8601 39.62 98.1301C35.64 103.95 29.17 104.4 29.17 104.4C29.66 99.7801 30.78 96.1001 34.14 92.0701C36.82 88.8501 39.22 86.8701 41.73 84.9201C43.17 83.8101 44.87 83.1001 46.66 82.8301C46.67 82.8301 46.69 82.8301 46.7 82.8301C46.79 82.8301 38.55 88.0701 34.27 96.7401C34.27 96.7401 42.33 86.5001 47.29 84.5601C47.29 84.5601 47.17 85.8001 47.01 86.5101L47.03 86.4901Z" fill="#D2B37C"></path> <path d="M61 89.53C61.41 89.12 62.56 88.41 62.74 88.27C62.72 88.61 60.39 102.85 58.14 106.2C55.95 109.5 52.68 111.23 52.68 111.23C49.65 105.13 53.64 97.44 57.31 91.8C57.71 91.19 58.28 90.72 58.95 90.42C58.95 90.42 58.96 90.42 58.97 90.42C56.11 95.46 55.3 99.62 54.66 104.06C57.88 93.18 61.01 89.53 61.01 89.53H61Z" fill="#D2B37C"></path> <path d="M64.67 93.9102C63.68 97.5402 63.29 101.85 63.29 101.85C63.75 98.9802 65.26 95.8202 65.67 94.9202C65.84 94.5502 67.35 93.1802 68.59 92.6402C67.88 103.36 63.66 108.64 63.66 108.64C59.66 103.43 62.95 95.1202 64.38 91.6602C64.38 91.6602 64.83 93.3102 64.67 93.9002V93.9102Z" fill="#D2B37C"></path> <path d="M79.65 82.8098C76.91 85.4098 77.34 95.4998 71.39 100.95C71.39 100.95 69.53 98.1998 70.93 91.7298C71.68 88.2598 75.29 84.6898 75.45 84.5898C75.45 84.5898 71.65 90.7898 71.72 96.2998C71.72 96.2998 73.94 85.7198 78.5 82.5698L79.65 82.8098Z" fill="#D2B37C"></path> <path d="M52.32 39.5498C53.65 44.2198 61.09 50.1098 64.76 52.7698C66.5 54.0298 69.56 57.1798 67.04 60.0398C63.79 63.7098 62.79 68.5598 64.45 70.4598C65.7 71.9798 69.4 72.9298 73.23 72.4598C75.18 72.2198 77.03 73.2598 77.8 75.0698C78.81 77.4398 80.72 80.3898 84.25 81.8298C84.25 81.8298 78.38 83.5798 76.56 78.9098C76.56 78.9098 76.93 81.0098 75.03 83.0498C75.03 83.0498 71.78 82.1698 70.96 78.9898C70.96 78.9898 69.7 81.3698 67.12 82.1898C67.12 82.1898 64.98 81.0898 65.42 76.8198C65.42 76.8198 63.89 80.5898 59.06 81.2498C59.06 81.2498 56.28 77.7398 59.91 73.0198C59.91 73.0198 57.29 75.3198 52.6 74.2298C52.6 74.2298 51.8 71.8098 56.11 68.4698C56.11 68.4698 51.26 68.2798 49.42 64.2398C49.42 64.2398 51.48 61.6898 56.48 62.2498C56.48 62.2498 51.8 61.2698 50.78 55.6598C50.78 55.6598 54.1 53.5898 59.47 56.9698C59.47 56.9698 50.76 51.4498 52.33 39.5598L52.32 39.5498Z" fill="#D2B37C"></path> <path d="M30.85 55.1598C25.75 52.5998 11.25 47.4598 11.25 47.4598C22.03 49.3198 31.92 53.4298 34.73 54.6598C35.26 54.8898 35.84 54.9898 36.41 54.9398C37.28 54.8598 38.5 54.7498 38.65 54.7598C36.05 52.6498 16.21 43.2098 0.630005 42.5498C0.630005 42.5498 1.86 49.2798 12.36 53.6198C20.08 56.8498 30.66 58.4798 36.66 60.0298C35.42 57.6598 34.47 56.9898 30.84 55.1598H30.85Z" fill="#D2B37C"></path> <path d="M53.94 52.2798C48.73 49.6798 44.57 45.9598 42.55 42.3198C40.15 38.0898 41.86 31.5498 41.86 31.5498C45.72 33.6498 48.9 39.2698 49.57 40.4598C50.24 41.6698 51.09 44.9998 51.62 46.8598C51.62 46.8598 48.17 43.0398 46.23 39.3498C48.53 46.2498 53.94 52.2698 53.94 52.2698V52.2798Z" fill="#D2B37C"></path> <path d="M51.31 54.6298C47.17 55.4898 42.93 54.9298 40.4 52.6398C38 50.4698 36.67 45.0698 36.67 45.0698C43.87 46.9798 51.19 51.6498 53 54.0298C49.78 52.0198 44.12 49.7598 44.18 49.7898C48.53 52.0398 51.31 54.6298 51.31 54.6298Z" fill="#D2B37C"></path> <path d="M89.92 94.56C89.7 94.09 88.57 95.15 87.66 97.56C87.36 95.4 88.94 93 88.94 93C85.32 94.73 85.21 98.29 85.49 99.87C85.99 102.75 85.94 102.03 85.86 103.5C90.82 100.91 90.81 96.52 89.92 94.56Z" fill="#D2B37C"></path> <path d="M92.22 95.3001C92.51 93.4301 97.05 91.1901 93.24 85.2801C92.39 86.2001 91.59 87.4601 91.44 89.3701C90.56 86.3701 91.8 85.0901 92.19 83.8301C91.98 84.3201 86.76 88.4601 92.22 95.3001Z" fill="#D2B37C"></path> <path d="M92.7899 15.9001L93.2299 17.0201C93.2299 17.0201 95.0399 16.7701 95.8899 16.6101C95.6299 14.1901 94.9599 8.89008 93.8399 7.70008C93.3299 7.34008 92.7399 7.44008 91.9799 7.60008C91.7299 7.68008 91.4799 7.79008 91.2599 7.93008C90.6599 8.30008 90.4399 9.07008 90.6699 9.73008L92.7999 15.9001H92.7899Z" fill="#D2B37C"></path> <path d="M96.37 94.1899C95.31 96.6199 94.93 97.3699 94.32 99.5599C94.43 98.5399 93.8 96.4299 94.95 93.6499C88.87 101.23 94.19 103.4 94.03 105.85C94.03 105.85 99.92 99.2299 96.36 94.1899H96.37Z" fill="#D2B37C"></path> <path d="M81.28 114.42C83.89 112.96 91.7 119.15 94.61 110.26C94.84 109.56 94.96 108.49 94.85 107.6C94.28 108.39 93.61 111.35 90.15 112.04C92.25 110.85 92.89 109.49 92.9 108.57C88.47 114.34 84.69 108.27 81.28 114.43V114.42Z" fill="#D2B37C"></path> <path d="M91.5999 102.62C91.5999 102.62 90.2099 103.37 89.6399 105.43C89.2899 104 90.5999 101.24 90.5999 101.24C86.2999 106.6 88.6599 108.66 87.3199 110.53C94.7799 109.18 91.6099 102.63 91.6099 102.63L91.5999 102.62Z" fill="#D2B37C"></path> <path d="M96.02 75.6199C95 76.7899 94.58 77.5099 94.22 80.2299C94.22 80.2299 93.5 78.0899 94.01 75.8599C92.73 77.9699 92.6 80.8499 92.83 81.9399C93.35 84.6099 96.2 86.8999 96.2 86.8999C97.2 84.1499 100.2 80.7999 96.02 75.6099V75.6199Z" fill="#D2B37C"></path> <path d="M98.58 4.75H99.94V3.1H101.67V1.89H99.94V0H98.58V1.89H96.85V3.1H98.58V4.75Z" fill="#D2B37C"></path> <path d="M96.72 16.5002L98.38 16.3802C98.09 14.0202 95.49 6.22018 94.51 5.93018C94.51 5.93018 95.89 8.82018 96.72 16.5002Z" fill="#D2B37C"></path> <path d="M85.61 81.7601C86.28 83.8301 87.68 85.0401 88.92 86.3501C89.09 85.1001 90.74 83.9601 91.32 82.2101C92.35 79.1001 90.22 76.8401 89.35 75.7401C87.68 77.6501 87.68 79.3101 87.68 81.8501C86.49 78.7001 87.22 75.8901 88.21 74.1001C88.21 74.1001 84.47 78.2401 85.61 81.7701V81.7601Z" fill="#D2B37C"></path> <path d="M99.22 107.88C99.05 109.31 98.59 100.75 98.27 101.26C97.32 102.78 96.33 105.02 96.34 106.58C96.48 110.67 99.05 116.35 99.05 116.35C99.05 116.35 104.98 107.25 99.99 101.07C99.72 100.73 99.22 109.31 99.22 107.88Z" fill="#D2B37C"></path> <path d="M94.45 118.48C96.45 126.22 92.35 128.33 92.35 128.33C96.11 128.42 98.07 124.64 98.14 121.73C98.23 117.37 96.76 115.02 96.24 113.57C96.18 113.41 95.77 113.23 95.56 114.93C95.21 113.8 95.49 112.47 95.97 110.95C94.64 112.82 93.87 116.21 94.45 118.46V118.48Z" fill="#D2B37C"></path> <path d="M93.04 115.08C92.11 115.36 90.67 116.97 90.37 118.86C89.94 121.61 87.94 122.16 86.27 123.06C83.85 124.37 84.1 127.99 84.1 127.99C85.52 124.36 90.51 127.97 91.64 120.77C92.2 125.37 88.75 126.66 86.25 127.81C83.97 128.85 83.6 133.08 83.6 133.08C85.83 128.6 95.38 131.23 92.59 119.53C92.06 117.29 93.03 115.1 93.03 115.09L93.04 115.08Z" fill="#D2B37C"></path> <path d="M83.26 121.69C83.26 121.69 81.88 121.9 81.23 121.09C78.77 118.05 85.83 116.37 86.67 116.77C86.67 116.77 85.97 116.36 84.57 116.03C84.25 115.96 82.43 116.03 80.23 117.05C80.85 116.27 81.37 115.9 82.35 115.68C80.39 115.59 78.32 116.19 77.51 118.77C76.76 121.13 80.04 125.18 83.26 121.69Z" fill="#D2B37C"></path> <path d="M99.38 72.4902C99.34 72.3202 99.14 62.3502 98.63 62.5202C95.62 63.5502 93.95 71.9402 98.19 76.5102C98.89 77.2702 99.48 78.7102 99.48 78.7102C99.59 78.1102 99.82 77.2402 100.3 76.7402C104.9 71.9402 102.62 66.1002 100.46 63.9902C100.1 63.6402 99.42 72.3102 99.38 72.4802V72.4902Z" fill="#D2B37C"></path> <path d="M99.47 91.9198C99.29 91.4398 99.07 87.6098 98.65 85.5098C94.24 90.0598 97.65 94.1798 99.27 96.7498C100.65 94.2798 105.2 91.3198 100.13 85.5098C100.01 87.0098 99.74 89.2798 99.47 91.9198Z" fill="#D2B37C"></path> <path d="M74.23 119.39C73.99 119.33 71.46 119.79 69.53 121.26C70.13 119.65 72.61 119.11 72.39 119.11C71.12 119.11 69.78 119.54 68.67 120.88C66.1 124.32 62.23 125.52 58.82 124.79C53.61 123.67 52.23 124.85 52.29 125.91C49.48 126.52 51.09 128.98 51.09 128.98C50.64 127.48 52.7 127.57 52.7 127.57C53.32 129.65 55.7 128.89 56.52 127.47C56.69 126.56 60.75 128.2 60.75 128.2C56.87 128.24 52.48 131.27 53.77 133.66C52.73 134.59 52.84 136.48 54.25 137.03C53.4 135.23 55.1 134.93 55.1 134.93C58.22 135.93 58.19 132.43 58.21 132.14C58.54 130.2 62.48 130.16 62.48 130.16C58.05 133.33 59.17 138.64 60.37 138.39C59.83 141.15 62.58 140.21 62.58 140.21C61.01 139.62 61.75 138.53 61.75 138.53C64.22 138.56 63.61 135.03 62.93 134.55C62.64 129.71 67.87 127.77 70.28 129.47C69.96 131.16 71.17 131.59 71.17 131.59C71.44 132.49 70.34 132.86 70.34 132.86C71.7 133.84 72.94 131.55 72.94 131.55C76.8 128.94 71.9 126.37 68.79 126.13C70.1 124.62 71.54 122.93 72.15 122.13C73.13 120.84 75.52 120.28 76.74 120.74C77.11 120.88 76.13 119.85 74.22 119.41L74.23 119.39Z" fill="#D2B37C"></path> <path d="M91.5199 68.7299C92.1299 65.4999 94.37 64.2499 93.94 64.4199C91.99 65.1999 89.12 68.3099 89.21 71.5799C89.27 73.8599 90.24 75.2099 91.67 76.4999C91.79 73.2099 93.73 74.2799 94.97 64.6799C95.01 64.3699 93.1099 65.5199 91.5199 68.7199V68.7299Z" fill="#D2B37C"></path> <path d="M91.81 63.8901C93.4 62.3201 93.99 57.9601 91.46 55.7801C90.62 56.7401 89.57 59.8001 89.57 59.8001C89.57 59.8001 89.45 57.7101 90.42 55.1201C84.47 63.5001 88.35 69.2101 88.35 69.2101C89.17 66.9901 89.7 65.9901 91.81 63.8901Z" fill="#D2B37C"></path> <path d="M94.24 40.71C94.24 40.71 95.19 43.66 93.58 47.08C93.76 43.66 93.88 43.53 93.88 43.53C88.56 52.65 94.22 56.51 94.22 56.51C94.12 53.71 94.93 53.68 95.84 50.7C96.93 47.13 94.23 40.71 94.23 40.71H94.24Z" fill="#D2B37C"></path> <path d="M87.1601 72.39C87.9201 70.83 86 67.52 86 66.68C86 66.68 85.04 67.33 84.24 69.56C84.31 68.15 84.6 67.24 85.35 65.79C85.35 65.79 80.23 69.37 84.81 78.04C84.81 78.04 85.0601 76.68 87.1601 72.39Z" fill="#D2B37C"></path> <path d="M80.5201 111.88C80.1801 111.76 76.7101 112.27 73.6501 113.58C75.0101 111.47 78.9501 111.44 78.6601 111.39C72.4601 110.29 69.6701 115.53 68.1801 115.22C68.1801 115.22 75.6901 121.89 80.5201 111.88Z" fill="#D2B37C"></path> <path d="M85.76 84.41C84.08 85.08 84.32 87.9 84.25 87.71C83.1 84.68 84.76 83.04 84.76 83.04C79.58 88.16 84.57 92.36 85.17 94.89C88.83 90.78 87.08 86.52 85.76 84.4V84.41Z" fill="#D2B37C"></path> <path d="M82.82 110.57C86.96 110.38 87.46 103.51 87.46 103.51C87.46 103.51 86.53 104.68 82.7 106.7C83.85 104.93 84.16 104.96 84.91 103.77C82.67 104.44 78.49 107.31 77.65 109.9C79.13 109.71 80.24 110.69 82.82 110.57Z" fill="#D2B37C"></path> <path d="M99.27 5.70996C99.27 5.70996 99.27 5.70996 99.26 5.70996C99.25 5.70996 99.26 5.70996 99.25 5.70996C98.07 5.70996 97.13 6.62996 97.13 7.73996C97.13 9.22996 98.97 12.57 99.26 14.08C99.55 12.56 101.39 9.21996 101.39 7.73996C101.39 6.62996 100.45 5.70996 99.27 5.70996Z" fill="#D2B37C"></path> <path d="M101.74 16.4999L100.98 16.4499L100.08 16.3899C100.37 14.0299 102.97 6.22994 103.95 5.93994C103.95 5.93994 102.57 8.82994 101.74 16.5099V16.4999Z" fill="#D2B37C"></path> <path d="M105.66 15.9001L105.22 17.0201C105.22 17.0201 103.41 16.7701 102.56 16.6101C102.82 14.1901 103.49 8.89008 104.61 7.70008C105.12 7.34008 105.71 7.44008 106.47 7.60008C106.72 7.68008 106.97 7.79008 107.19 7.93008C107.79 8.30008 108.01 9.07008 107.78 9.73008L105.65 15.9001H105.66Z" fill="#D2B37C"></path> <path d="M90.46 48.52C90.46 48.52 87.08 65.05 78.91 65.55C76.95 65.67 75.02 63.89 74.37 62.11C73.81 60.34 74.02 57.53 75.28 56.58C75.28 56.58 75.71 59.58 78.11 60.29C85.31 62.42 90.46 48.52 90.46 48.52Z" fill="#D2B37C"></path> <path d="M98.2099 40.6001C98.5399 41.3701 99.1399 42.7901 99.4499 45.1401C99.7499 42.4601 99.9699 41.2501 100.38 40.6501C103.41 41.6401 101.7 47.5401 99.5199 50.3501C97.9899 48.8001 94.5899 42.1801 98.2099 40.6001Z" fill="#D2B37C"></path> <path d="M81.9301 66.9902C80.8501 73.6002 82.5001 77.2202 83.8001 79.4802C80.2601 78.0902 75.4201 71.1502 78.4901 66.7202C78.4901 66.7202 78.2801 69.5102 79.3001 71.6802C79.2001 67.5302 81.9201 66.9902 81.9201 66.9902H81.9301Z" fill="#D2B37C"></path> <path d="M121.2 53.5698C122.06 57.1498 111.03 61.5798 110.52 44.0698C110.52 44.0698 111.13 48.2598 113.49 51.0898C112.61 49.1898 112.45 47.7898 112.33 46.6698C113.61 49.6698 115.7 55.1998 121.21 53.5698H121.2Z" fill="#D2B37C"></path> <path d="M109.92 33.22C110.19 33.18 106.07 34.34 104.81 36.53C106.69 35.41 107.84 34.94 108.88 35.06C106.88 36.4 106.62 37.9 104.45 39.69C103.23 40.69 101 39.75 101 39.75C102.37 39.44 102.11 34.27 109.92 33.21V33.22Z" fill="#D2B37C"></path> <path d="M109.54 48.4599C105.11 46.8599 105.29 38.3399 110.5 35.4499C110.82 35.2699 110.77 37.3899 108.56 39.8499C111.92 38.3199 112.31 34.7599 112.72 34.6699C112.72 41.5699 107.71 41.2899 109.54 48.4699V48.4599Z" fill="#D2B37C"></path> <path d="M113.39 40.1102C114.72 37.2302 117.56 35.3302 117.56 35.3302L119.99 34.2202C112.72 40.6802 115.36 47.5302 115.36 47.5302C108.92 44.4202 113.17 37.7702 114.85 36.5602C114.85 36.5602 114.22 37.1402 113.39 40.1002V40.1102Z" fill="#D2B37C"></path> <path d="M121.28 34.2202C128.99 36.5602 125.71 41.2202 125.71 41.2202C125.5 36.6002 118.71 37.0502 118.71 37.0502L121.28 34.2202Z" fill="#D2B37C"></path> <path d="M133.66 28.8302C132.12 26.5102 129.07 27.7202 129.07 27.7202C127.89 30.4702 126.71 30.3102 124.52 31.2602C122.9 32.0002 122.13 33.1902 122.13 33.1902C123.49 33.5502 125.08 34.4602 125.08 34.4602C128.32 31.5602 132.17 34.4802 132.17 34.4802C134.3 33.1902 134.62 30.3902 133.66 28.8202V28.8302ZM129.5 32.4002C129.04 32.4002 128.67 32.0302 128.67 31.5702C128.67 31.1102 129.04 30.7402 129.5 30.7402C129.96 30.7402 130.33 31.1102 130.33 31.5702C130.33 32.0302 129.96 32.4002 129.5 32.4002Z" fill="#D2B37C"></path> <path d="M126.2 26.03C126.37 25.98 126.65 26.59 126.3 27.86C127.29 26.97 127.07 25.89 127.22 25.92C127.93 26.06 128.35 26.84 127.93 27.74C127.36 29.04 125.54 29.61 124.62 30.03C125.79 27.84 126.19 26.03 126.19 26.03H126.2Z" fill="#D2B37C"></path> <path d="M102.58 23.9702C102.58 23.9702 103 29.3502 107.92 30.0302C107.92 30.0302 105.03 32.1002 100.82 32.6502C100.82 32.6502 103.11 33.9702 105.94 33.6002C108.85 33.2102 110.86 32.1402 111.4 31.5702C111.4 31.5702 111.34 32.6502 110.15 34.4902C110.15 34.4902 112.68 34.1802 113.9 33.0202C113.9 33.0202 113.54 34.0802 113.9 35.8402C113.9 35.8402 124.38 33.0702 124.6 25.6002C124.6 25.6002 108.84 28.2202 102.57 23.9702H102.58ZM120 30.4002C119.82 28.2102 116.86 28.7402 115.6 28.4402C115.62 28.3002 115.67 28.2102 115.67 28.2102C118.55 28.3902 120.27 28.1802 121.78 28.0002C121.78 28.0002 121.71 29.3402 120 30.4002Z" fill="#D2B37C"></path> <path d="M119.613 24.4276C121.655 24.3477 123.298 23.9564 123.282 23.5535C123.266 23.1506 121.598 22.8888 119.556 22.9687C117.515 23.0485 115.872 23.4399 115.888 23.8427C115.904 24.2456 117.572 24.5074 119.613 24.4276Z" fill="#D2B37C"></path> <path d="M116.79 12.0001L118.51 11.9701L118.47 10.0801L119.85 10.0601L119.89 11.9501L121.55 11.9201L121.57 13.1301L119.91 13.1601L119.95 14.8501L118.56 14.8701L118.53 13.1901L116.81 13.2201L116.79 12.0001Z" fill="#D2B37C"></path> <path d="M119.92 22.2402L121.36 18.1502C122.05 17.4602 125.01 16.2402 124.61 17.9702C124.45 18.6602 122.27 21.9502 121.98 22.3602L119.93 22.2402H119.92Z" fill="#D2B37C"></path> <path d="M120.81 17.2698C120.68 18.0498 119.69 20.4898 119.33 21.3998C118.99 20.4998 117.83 18.0498 117.81 17.2598C117.77 15.4198 121.07 15.6598 120.8 17.2598L120.81 17.2698Z" fill="#D2B37C"></path> <path d="M101.05 20.4199C101.05 20.4199 108.03 18.5099 110.89 24.6099C110.89 24.6099 108.5 22.3499 107.2 22.3399C107.8 22.8199 108.83 23.7999 109.13 24.7599C107.91 24.7399 105.96 24.5499 104.42 23.8499C102.9 23.1299 101.44 21.3599 101.05 20.4099" fill="#D2B37C"></path> <path d="M116.74 22.4499C116.43 22.0499 114.14 18.8399 113.96 18.1599C113.5 16.4499 116.38 17.2399 117.09 17.9099L118.79 22.2699L116.74 22.4599V22.4499Z" fill="#D2B37C"></path> <path d="M150.48 90.2301C160.35 99.2801 158.41 109.37 158.41 109.37C158.41 109.37 151.65 106.92 149.02 101.76C146.39 96.5501 144.68 94.1701 144.14 92.4401C143.94 91.8001 143.98 89.4101 144.23 87.8501C144.23 87.8501 152.02 98.7501 154.89 102.78C154.89 102.78 146.58 88.4501 146.12 88.3001C147.39 88.7101 147.78 88.7701 149.06 89.2001C149.39 89.3101 150.24 89.9901 150.5 90.2301H150.48Z" fill="#D2B37C"></path> <path d="M158.72 39.3202C159.55 34.3002 158.25 33.7902 159.85 30.9402C161.98 27.1502 165.52 22.8302 167.62 19.7502C170.04 16.2402 175.7 9.76021 179.58 6.47021C180.48 10.5302 181.45 17.9702 178 24.5502C174.61 31.0602 167.74 39.2302 159.4 44.2902C159.4 44.2902 155.97 45.5102 155.06 45.9402C156.18 44.7102 165.92 36.3102 172.12 19.7302C165.22 27.6002 162.28 35.2302 158.75 39.3202H158.72Z" fill="#D2B37C"></path> <path d="M145.77 61.5801C148.68 57.4201 154.09 57.3101 158.03 57.2601C154.83 56.8401 153.55 56.7901 148.68 57.4201C151.15 56.0101 158.25 55.0601 162.76 56.0301C162.76 56.0301 160.98 61.1101 155.7 61.6701C149.41 62.3401 145.77 61.5801 145.77 61.5801Z" fill="#D2B37C"></path> <path d="M158.58 65.0899C155.23 63.7099 150.3 63.9999 150.3 63.9999C152.89 62.9399 155.63 62.3799 158.35 63.3499C161.03 64.4299 161.73 65.6199 162.44 66.5699C162.44 66.5699 159.44 69.1199 156.02 69.2199C152.6 69.2499 149.92 68.6299 148.55 67.5899C148.55 67.5899 149.71 63.4299 158.59 65.0899H158.58Z" fill="#D2B37C"></path> <path d="M156.52 73.11C150.08 69.23 145.26 69.67 145.26 69.67C147.44 69.28 152.14 68.11 161.06 73.9C161.06 73.9 157.54 76.88 153.95 76.17C150.96 75.53 147.78 74.27 146.21 70.97C146.21 70.97 150.83 70.94 156.52 73.12V73.11Z" fill="#D2B37C"></path> <path d="M151.57 78.3001C149.36 76.6601 146.68 75.7201 146.68 75.7201C148.43 75.7001 151.07 76.1201 156.93 79.5601C156.93 79.5601 150.23 85.4401 141.79 75.3701C141.79 75.3701 141.79 75.3601 141.79 75.3501C141.79 75.3501 144.44 75.3101 151.57 78.3101V78.3001Z" fill="#D2B37C"></path> <path d="M141.31 80.1602C143.42 80.3702 146.41 82.2502 147.85 84.5302C146.92 82.0102 145.15 80.7602 141.57 78.7202C151.01 80.5702 150.05 88.3402 150.05 88.3402C147.53 86.3602 141.2 86.7702 141.31 80.1602Z" fill="#D2B37C"></path> <path d="M137.33 81.6701C138.02 81.9401 138.57 82.4601 139.17 82.9001C144.34 86.6301 142.24 90.4601 142.24 90.4601C138.45 87.1201 134.81 87.2001 133.57 83.0501C133.23 81.9101 133.46 81.3101 133.87 80.8501C135.93 81.3901 137.2 81.7301 139.76 85.0901C139.05 82.6801 137.28 81.6601 137.28 81.6601L137.32 81.6801L137.33 81.6701Z" fill="#D2B37C"></path> <path d="M131.2 87.5101C131.24 84.1901 129.43 82.0801 129.43 82.0801C130.58 82.7701 132.4 83.0901 133.31 87.1001C133.73 88.9501 132.59 91.8501 132.36 92.7801C132.36 92.7801 131.52 91.6501 129.57 90.1301C127.94 88.8601 125.76 85.5901 126.72 82.7201C126.72 82.7201 129.21 83.5201 131.2 87.5001V87.5101Z" fill="#D2B37C"></path> <path d="M180.01 33.8999C170.22 41.0499 165.46 44.7699 163.02 47.5999C163.86 45.8899 164.45 43.9799 166.44 41.8399C169.72 38.2999 186.91 23.1199 190.56 22.3599C190.56 22.3599 191.26 29.3299 187.6 34.6099C183.93 39.9499 172.77 47.8699 161.17 51.5099C161.17 51.5099 174.62 38.1899 180.02 33.9099L180.01 33.8999Z" fill="#D2B37C"></path> <path d="M161.27 62.77C160.92 62.83 160.55 62.76 160.24 62.58L159.37 62.1C164.61 60.51 171.08 58.34 181.88 57.64C189.77 57.11 195.53 57.53 198.48 58.34C198.48 58.34 191.25 63.43 182.99 65.21C175.94 66.73 170.03 66.13 165.41 65.94C164.1 65.89 163.15 65.47 162.22 64.54C162.22 64.54 162.22 64.52 162.2 64.52C165.75 62.69 175.27 60.87 182.66 60.02C174.54 59.44 165.76 62.01 161.26 62.75L161.27 62.77Z" fill="#D2B37C"></path> <path d="M158.95 69.6C159.24 69.54 159.53 69.51 159.82 69.51C167.01 69.57 181.21 70.89 181.21 70.89C171.24 68.74 166.41 68.3 161.56 68.29C161.57 68.29 161.58 68.28 161.59 68.27C162.64 67.66 186.5 64.67 194.8 73.71C194.8 73.71 189.3 76.23 178.93 75.45C168.63 74.73 160.39 72.28 156.93 70.03L158.94 69.6H158.95Z" fill="#D2B37C"></path> <path d="M173.81 76.3799C177.39 77.2299 185.24 79.4299 189.09 86.4799C189.09 86.4799 182.76 88.8199 172.31 84.1199C161.85 79.4099 158.53 78.3999 156.57 77.8799C157.7 77.4799 158.79 77.0099 160.12 76.6799C164.54 75.5799 174.01 78.0799 178.79 80.5599C178.79 80.5599 174.96 76.4999 161.84 75.2399C161.84 75.2399 164.26 74.1299 173.8 76.3899L173.81 76.3799Z" fill="#D2B37C"></path> <path d="M157.89 80.6702C158.29 80.7802 160.95 80.6702 169.57 84.5002C172.74 85.9102 177.58 89.0202 180.23 96.2502C180.23 96.2502 173.8 97.0202 168.34 92.8502C162.88 88.6102 160.42 85.0302 154.71 81.8002C155.95 80.3402 163.84 83.2202 171.74 88.7302C166.95 83.0602 157.89 80.6602 157.89 80.6602V80.6702Z" fill="#D2B37C"></path> <path d="M151.18 84.5498C156.15 86.4898 164.2 96.7298 164.2 96.7298C159.92 88.0498 151.68 82.8098 151.77 82.8198C151.78 82.8198 151.8 82.8198 151.81 82.8198C153.61 83.0898 155.31 83.7998 156.74 84.9098C159.26 86.8598 161.66 88.8398 164.33 92.0598C167.69 96.0898 168.82 99.7698 169.3 104.39C169.3 104.39 162.83 103.94 158.85 98.1198C155.33 92.8498 151.96 88.6598 151.56 86.8698C151.4 86.1598 151.16 84.5398 151.16 84.5398L151.18 84.5498Z" fill="#D2B37C"></path> <path d="M144.17 104.02C143.45 99.5999 142.72 95.6799 139.76 90.6999C139.76 90.6999 139.77 90.6999 139.78 90.6999C140.45 90.9799 141.03 91.4399 141.44 92.0499C145.21 97.6199 149.19 104.99 146.28 111.15C146.28 111.15 142.98 109.48 140.72 106.22C138.4 102.91 135.8 88.7199 135.77 88.3799C135.96 88.5199 137.12 89.1999 137.54 89.6099C137.54 89.6099 140.74 93.1999 144.17 104.02Z" fill="#D2B37C"></path> <path d="M134.1 91.6802C135.53 95.1402 138.82 103.45 134.82 108.66C134.82 108.66 130.6 103.38 129.89 92.6602C131.12 93.1902 134.73 99.0002 135.19 101.86C135.19 101.86 134.81 97.5502 133.81 93.9202C133.65 93.3302 134.1 91.6802 134.1 91.6802Z" fill="#D2B37C"></path> <path d="M120.22 82.4502C124.78 85.6002 126.76 96.3102 126.76 96.3102C126.82 90.8002 123.55 84.3102 123.55 84.3102C123.71 84.4102 127.11 88.5202 127.87 91.9902C129.27 98.4502 127.09 100.97 127.09 100.97C121.14 95.5202 121.09 85.2802 118.35 82.6802L120.22 82.4602V82.4502Z" fill="#D2B37C"></path> <path d="M146.17 39.5598C147.74 51.4498 139.03 56.9698 139.03 56.9698C144.4 53.5898 147.72 55.6598 147.72 55.6598C146.7 61.2698 142.02 62.2498 142.02 62.2498C147.03 61.6898 149.08 64.2398 149.08 64.2398C147.23 68.2798 142.39 68.4698 142.39 68.4698C146.7 71.8098 145.9 74.2298 145.9 74.2298C141.21 75.3198 138.59 73.0198 138.59 73.0198C142.22 77.7398 139.44 81.2498 139.44 81.2498C134.61 80.5898 133.08 76.8198 133.08 76.8198C133.52 81.0898 131.38 82.1898 131.38 82.1898C128.8 81.3598 127.69 79.0498 127.69 79.0498C126.87 82.2298 124.7 83.3298 124.7 83.3298C122.79 81.2898 122.94 79.5698 122.94 79.5698C120.22 82.2498 115.54 81.6998 115.54 81.6998C120.31 78.9198 121.04 76.2398 121.97 73.4798C122.25 72.6398 123.05 72.0598 123.91 72.2698C128.25 73.3498 132.6 72.2298 134.05 70.4598C135.72 68.5598 134.71 63.7098 131.46 60.0398C128.93 57.1898 131.99 54.0398 133.74 52.7698C137.42 50.1098 144.85 44.2198 146.18 39.5498L146.17 39.5598Z" fill="#D2B37C"></path> <path d="M162.75 59.4801C168.75 57.9301 178.4 56.8601 186.12 53.6301C196.62 49.2901 197.85 42.5601 197.85 42.5601C182.28 43.2201 162.45 52.4001 159.85 54.5101C159.99 54.5101 163.24 54.6501 163.77 54.4201C166.58 53.1901 176.45 49.3401 187.23 47.4801C187.23 47.4801 172.73 52.6101 167.63 55.1801C164 57.0001 163.98 57.1301 162.75 59.5001V59.4801Z" fill="#D2B37C"></path> <path d="M152.11 39.7402C150.17 43.4302 147.19 46.7102 147.19 46.7102C147.72 44.8402 148.05 42.1802 148.64 40.9202C150.12 37.7402 155.75 32.4302 156.97 30.9502C156.97 30.9502 158.3 37.7602 155.9 41.9902C153.88 45.6302 149.61 50.0602 144.4 52.6602C144.4 52.6602 149.81 46.6402 152.11 39.7402Z" fill="#D2B37C"></path> <path d="M154.92 49.5201C154.98 49.4901 149.37 51.8601 146.19 53.9401C147.95 51.5301 155.17 46.7101 162.33 44.6401C162.33 44.6401 161.02 50.4701 158.13 52.6301C155.39 54.6801 151.15 54.7301 147.36 54.3001C147.36 54.3001 150.62 51.8501 154.92 49.5101V49.5201Z" fill="#D2B37C"></path> <path d="M122.15 120.35C121.78 120.48 122.79 119.48 124.71 119.1C124.95 119.05 127.47 119.59 129.35 121.12C128.8 119.49 126.34 118.87 126.56 118.87C127.83 118.91 129.15 119.39 130.22 120.76C132.68 124.28 136.51 125.61 139.94 124.99C145.18 124.05 146.53 125.26 146.43 126.32C149.22 127.02 147.53 129.42 147.53 129.42C148.03 127.94 145.96 127.96 145.96 127.96C145.27 130.02 142.92 129.18 142.15 127.74C142.01 126.83 137.9 128.33 137.9 128.33C141.78 128.5 146.06 131.67 144.7 134.02C145.71 134.98 145.53 136.87 144.11 137.37C145.01 135.6 143.33 135.25 143.33 135.25C140.18 136.14 140.33 132.65 140.31 132.35C140.04 130.4 136.1 130.23 136.1 130.23C140.42 133.55 139.13 138.82 137.94 138.52C138.39 141.3 135.67 140.27 135.67 140.27C137.26 139.73 136.56 138.61 136.56 138.61C134.09 138.56 134.81 135.05 135.51 134.59C135.96 129.76 130.8 127.65 128.33 129.27C128.59 130.97 127.37 131.36 127.37 131.36C127.07 132.25 128.16 132.66 128.16 132.66C126.77 133.6 125.6 131.27 125.6 131.27C121.83 128.53 126.81 126.13 129.93 125.99C128.67 124.44 127.29 122.7 126.71 121.88C125.77 120.56 123.4 119.92 122.17 120.34L122.15 120.35ZM105.19 114.89C107.53 116.18 107.12 117.71 108.15 119.95C109.04 121.88 111.66 122.58 113.48 123.82C115.45 125.16 115.3 128.05 115.3 128.05C114.02 125.13 110.22 128.65 107.27 122.43C107.71 126.4 110.07 126.59 112.23 127.7C114.57 128.91 114.86 132.93 114.86 132.93C113.29 128.96 106.58 130.3 105.04 124.65C104.06 121.07 106.27 117.9 105.2 114.88L105.19 114.89ZM114.31 116.2C114.62 116.12 116.41 116.13 118.61 117.07C117.98 116.32 117.45 115.97 116.48 115.79C118.4 115.64 120.45 116.17 121.33 118.68C122.14 120.97 119.04 125.05 115.77 121.73C115.77 121.73 117.13 121.89 117.75 121.08C120.08 118.02 113.08 116.59 112.27 117C112.27 117 112.95 116.58 114.31 116.21V116.2ZM124.83 113.59C123.47 111.67 119.51 111.76 119.8 111.71C126.04 110.51 128.83 115.28 130.33 114.95C130.33 114.95 122.73 121.34 117.92 112.22C118.26 112.1 121.75 112.47 124.83 113.59ZM111.31 103.83C111.31 103.83 113.62 105.81 117.3 107.91C115.86 105.21 114.49 105.36 113.8 104.18C115.96 104.91 119.94 107.84 120.66 110.38C119.22 110.14 118.09 111.04 115.57 110.83C111.52 110.49 111.31 103.83 111.31 103.83ZM104.23 109.98C104.04 109.26 103.99 108.19 104.15 107.31C104.67 108.13 105.16 111.13 108.57 112.03C106.55 110.71 105.99 109.32 106.04 108.39C110.11 114.42 114.25 108.59 117.29 114.95C114.77 113.33 106.6 119.04 104.24 109.99L104.23 109.98ZM109.58 106.49C109.94 103.93 108.03 100.99 108.03 100.99C112.33 106.35 109.97 108.41 111.31 110.28C103.85 108.93 107.02 102.38 107.02 102.38C107.02 102.38 109 104.44 109.57 106.5L109.58 106.49ZM99.38 123.05C99.07 116.76 101.86 116.4 102.68 110.23C102.92 110.77 103.25 112.07 102.74 114.56C102.63 115.1 103.55 112.85 103.57 113.35C103.9 121.02 99.79 123.6 106.13 128.75C101.84 128.39 99.52 126.21 99.37 123.06L99.38 123.05ZM109.39 93.0201C112.93 94.7001 113.02 98.1701 112.74 99.7101C112.24 102.52 112.29 101.82 112.37 103.25C107.52 100.74 107.55 96.4501 108.43 94.5401C108.64 94.0801 109.75 95.1101 110.63 97.4601C110.94 95.3501 109.39 93.0101 109.39 93.0101M103.66 93.3901C109.74 100.97 104.42 103.14 104.58 105.59C104.58 105.59 98.69 98.9701 102.25 93.9301C103.31 96.3601 104.36 97.5301 104.97 99.7201C104.86 98.7001 105.27 96.4801 103.66 93.3901ZM113.86 82.7901C119.04 87.9101 114.05 92.1101 113.45 94.6401C109.79 90.5301 111.54 86.2701 112.86 84.1501C114.09 85.2401 114.48 89.7701 114.54 89.5801C115.65 86.3501 113.86 82.7801 113.86 82.7801M106.44 83.5601C106.65 84.0501 111.87 88.1901 106.41 95.0301C106.12 93.1601 101.58 90.9201 105.39 85.0101C106.24 85.9301 107.44 89.4901 107.6 91.4001C108.94 88.2401 106.83 84.8201 106.44 83.5601ZM113.01 81.5001C112.34 83.5701 110.94 84.7801 109.7 86.0901C109.53 84.8401 107.88 83.7001 107.3 81.9501C106.27 78.8401 108.4 76.5801 109.27 75.4801C110.94 77.3901 111.28 79.5001 110.97 82.5601C112.82 79.3701 111.4 75.6301 110.41 73.8401C110.41 73.8401 114.15 77.9801 113.01 81.5101V81.5001ZM106.74 76.2501C106.61 72.7301 104.73 74.4301 103.39 64.1401C104.63 64.3301 105.6 66.1001 106.4 67.3901C105.74 64.1101 104.57 63.3301 103.82 62.2501C105.71 63.1001 109.5 67.4601 109.41 70.9701C109.35 73.4101 108.29 74.8601 106.75 76.2401L106.74 76.2501ZM104.62 75.6101C105.9 77.7201 106.03 80.6001 105.8 81.6901C105.28 84.3601 102.43 86.6501 102.43 86.6501C101.43 83.9001 98.43 80.5501 102.61 75.3601C103.46 77.1501 103.85 79.1001 104.27 82.3001C104.27 82.3001 105.65 79.9501 104.62 75.6001V75.6101ZM107.08 56.2001C108.95 57.2901 110.04 59.9001 110.76 62.0201C112.28 66.5001 110.42 68.5501 110.42 68.5501C109.98 66.4701 107.95 64.8901 106.57 62.8001C105.49 61.1701 104.56 58.5701 106.25 56.8301C107.14 57.6901 109.49 61.5001 109.49 61.5001C109.49 61.5001 109.25 59.3401 107.08 56.2101V56.2001ZM105.99 45.3801C109.5 53.5901 104.52 56.6801 104.52 56.6801C104.01 54.2201 103.42 53.7901 102.66 50.7501C101.75 47.1201 104.29 41.5601 104.29 41.5601C104.29 41.5601 105.45 44.6701 105.64 49.9001C106.13 47.7901 106.08 46.9901 106 45.3701L105.99 45.3801Z" fill="#D2B37C"></path> <path d="M110.03 51.0601C112.64 60.3501 117.47 60.7901 119.42 60.6801C121.83 60.5501 122.69 57.4101 122.69 57.4101C125.55 62.4601 121.59 65.3501 119.25 65.3401C110.2 65.2901 108.06 49.1201 108.06 49.1201C108.06 49.1201 109.08 52.6301 111.2 56.5401C109.77 53.1801 110.04 51.0601 110.04 51.0601H110.03Z" fill="#D2B37C"></path> <path d="M116.58 66.2699C118.75 72.9399 116.41 76.1799 114.74 79.7199C119.1 78.4299 122.95 70.9999 120.17 66.1499C120.17 66.1499 120.92 68.7599 119.92 70.8699C120.04 68.2799 116.57 66.2699 116.57 66.2699H116.58Z" fill="#D2B37C"></path> <path d="M114.37 77.2799C114.37 77.2799 111.7 73.6399 111.5 71.8199C111.3 70.0199 112.58 67.3199 112.54 66.5199C112.54 66.5199 114.11 68.9399 114.8 70.9599C115.02 68.3699 114.07 66.3699 113.16 65.6299C113.16 65.6299 118.65 68.7699 114.36 77.2699L114.37 77.2799Z" fill="#D2B37C"></path> <path d="M101.11 54.8501C101.48 53.5601 101.49 53.1101 101.58 52.2201C103.19 53.2501 104.45 60.6801 101.95 63.1301C98.4 60.6801 99.77 53.1901 100.81 50.3501C100.77 52.5901 100.85 51.9901 101.11 54.8501Z" fill="#D2B37C"></path> <path d="M96.79 55.4402C97.89 53.8102 97.78 52.3302 97.94 50.2002C99.76 53.3002 98.54 60.6002 95.28 63.1602C95.28 63.1602 94.46 62.0202 95.2 56.7502C95.75 52.8402 98.21 50.8502 96.79 55.4402Z" fill="#D2B37C"></path> <path d="M105.75 18.4101C105.75 19.0601 102.89 19.7101 99.37 19.7101C95.85 19.7101 92.99 19.0501 92.99 18.4101C92.99 17.7701 95.85 17.1201 99.37 17.1201C102.89 17.1201 105.75 17.7601 105.75 18.4101Z" fill="#D2B37C"></path> <path d="M99.37 22.4301C99.9388 22.4301 100.4 21.969 100.4 21.4001C100.4 20.8313 99.9388 20.3701 99.37 20.3701C98.8011 20.3701 98.34 20.8313 98.34 21.4001C98.34 21.969 98.8011 22.4301 99.37 22.4301Z" fill="#D2B37C"></path> <path d="M99.2401 139.17C122.23 139.17 140.92 157.87 140.92 180.85C140.92 203.83 122.22 222.54 99.2401 222.54C76.2601 222.54 57.5601 203.84 57.5601 180.85C57.5601 157.86 76.2601 139.17 99.2401 139.17Z" fill="#D2B37C"></path> <path d="M108.34 192.51L108.47 192.19C109.32 190.09 110.83 186.28 111.43 184.43C112.03 182.58 112.92 179.01 113.39 177.04L113.47 176.7L126.82 172.36L127.09 172.62C127.85 173.34 129.78 175.25 131.45 177.51C133.31 180.04 134.63 182.78 134.99 183.56L135.06 183.71V183.87C134.98 184.78 134.68 188.05 133.45 192C132.28 195.79 130.52 198.61 130.01 199.39L129.93 199.52L129.8 199.59C129.08 200 126.49 201.43 123.5 202.38C120.84 203.22 118.27 203.65 116.97 203.83L116.6 203.88L108.34 192.51Z" fill="#005189"></path> <path d="M99.24 221.61C95.03 221.61 90.87 220.97 86.89 219.7L85.16 219.15L86.86 218.51C87.07 218.43 87.29 218.35 87.51 218.26C88.6 217.82 89.88 217.18 90.55 216.84L90.76 216.73L90.99 216.78C91.96 217.01 95.43 217.77 99.25 217.77C103.07 217.77 106.33 217.09 107.5 216.8L107.74 216.74L107.95 216.86C108.56 217.19 109.76 217.82 110.97 218.35L112.75 219.13L111.06 219.61C104.73 221.26 101.14 221.61 99.26 221.61H99.24Z" fill="#D60926"></path> <path d="M66.05 204.49C61.18 197.64 58.49 189.25 58.49 180.85V178.93L59.76 180.64C60.61 181.77 61.93 183.23 62.31 183.64L62.45 183.8L62.47 184.01C62.55 185 62.91 188.53 64.11 192.23C65.31 195.91 67.06 198.92 67.57 199.76L67.69 199.96L67.65 200.19C67.55 200.8 67.31 202.38 67.21 203.74L67.08 205.94L66.04 204.48L66.05 204.49Z" fill="#005189"></path> <path d="M131.26 204.25C131.25 204 131.24 203.75 131.22 203.53C131.15 202.61 130.94 201.06 130.82 200.23L130.79 200L130.92 199.8C131.43 199.01 133.2 196.13 134.39 192.29C135.63 188.3 135.95 184.97 136.02 184.05L136.04 183.82L136.2 183.66C136.71 183.14 137.97 181.83 138.73 180.9L139.96 179.39L139.99 181.12C139.94 189.65 137.31 197.76 132.4 204.59L131.35 206.06L131.27 204.26L131.26 204.25Z" fill="#005189"></path> <path d="M130.9 157.49C129.83 157.21 128.29 156.94 127.47 156.8L127.24 156.76L127.09 156.58C126.46 155.84 124.17 153.24 120.87 150.86C117.52 148.45 114.55 147.17 113.71 146.84L113.49 146.75L113.38 146.54C113 145.8 112.26 144.42 111.64 143.46L110.41 141.61L112.14 142.19C120.12 144.84 126.98 149.83 131.99 156.61L133.07 158.07L130.89 157.47L130.9 157.49Z" fill="#FFFFFC"></path> <path d="M66.4601 156.66C71.4201 149.97 78.4901 144.84 86.3601 142.2L88.1201 141.61L86.9601 143.32C86.1901 144.46 85.3801 145.97 85.0601 146.56L84.9501 146.76L84.7401 146.85C83.7201 147.27 80.9901 148.51 77.6501 150.86C74.4601 153.11 72.0401 155.81 71.3701 156.59L71.2201 156.76L70.9901 156.8C70.3001 156.91 68.9501 157.14 67.6101 157.5L65.4301 158.1L66.4501 156.66H66.4601Z" fill="#FFFFFC"></path> <path d="M62.18 182.05C61.48 181.25 60.93 180.58 60.54 180.06C59.79 179.06 59.1 177.99 58.76 177.45L58.65 177.27L58.67 177.06C59.24 170.93 61.23 164.92 64.43 159.67L64.55 159.48L64.76 159.41C65.48 159.16 66.61 158.78 67.89 158.44C68.53 158.27 69.24 158.11 70 157.96L70.88 157.79L70.74 158.67C70.54 159.97 70.3 162.02 70.3 164.42C70.3 167.54 70.75 170.26 70.95 171.29L71.01 171.63L70.76 171.87C69.99 172.6 68.03 174.53 66.41 176.74C64.99 178.68 63.89 180.63 63.22 181.93L62.8 182.75L62.19 182.06L62.18 182.05Z" fill="#FFFFFC"></path> <path d="M83.52 218.47C77.67 216.02 72.39 212.17 68.26 207.33L68.11 207.16V206.93C68.1 206.39 68.09 205 68.18 203.83C68.24 203 68.36 202.11 68.44 201.51L68.56 200.64L69.34 201.04C70.6 201.68 72.55 202.59 74.73 203.3C77.43 204.18 80.31 204.64 81.43 204.8L81.76 204.85L81.91 205.15C82.36 206.07 83.59 208.49 85.35 210.97C86.64 212.78 88.17 214.44 89.23 215.5L89.85 216.12L89.06 216.5C88.29 216.87 87.66 217.16 87.13 217.37C85.89 217.87 84.6 218.29 83.94 218.49L83.72 218.56L83.51 218.47H83.52Z" fill="#D60926"></path> <path d="M114.3 218.57C113.63 218.35 112.37 217.91 111.35 217.46C110.76 217.2 110.09 216.88 109.37 216.51L108.61 216.12L109.21 215.51C110.25 214.46 111.77 212.82 113.14 210.96C114.78 208.74 116.08 206.15 116.56 205.13L116.71 204.82L117.05 204.77C118.11 204.63 120.89 204.19 123.81 203.27C125.97 202.59 127.89 201.68 129.12 201.05L129.91 200.64L130.03 201.53C130.15 202.43 130.23 203.13 130.26 203.58C130.33 204.58 130.35 206.1 130.36 206.92V207.15L130.21 207.33C126.02 212.22 120.68 216.09 114.75 218.54L114.53 218.63L114.31 218.56L114.3 218.57Z" fill="#D60926"></path> <path d="M135.31 181.97C134.66 180.69 133.6 178.78 132.24 176.94C130.49 174.56 128.5 172.61 127.72 171.88L127.47 171.65L127.53 171.32C127.73 170.23 128.19 167.34 128.19 164.13C128.19 162.12 127.94 160.06 127.72 158.69L127.58 157.81L128.45 157.97C129.36 158.14 130.1 158.3 130.64 158.44C131.63 158.69 133.08 159.17 133.66 159.36L133.88 159.43L134 159.62C137.3 165.01 139.32 171.2 139.83 177.52L139.85 177.75L139.72 177.94C139.28 178.55 138.47 179.67 137.96 180.28C137.47 180.87 136.79 181.61 136.3 182.12L135.69 182.77L135.29 181.98L135.31 181.97Z" fill="#FFFFFC"></path> <path d="M98.9401 150.97C97.9501 150.43 95.3301 149.09 92.5301 148.19C90.3301 147.49 88.2801 147.09 86.9501 146.87L86.0601 146.73L86.5001 145.95C86.9701 145.11 87.3901 144.41 87.7601 143.87C88.5701 142.67 89.2901 141.75 89.5601 141.41L89.7001 141.24L89.9101 141.19C92.9701 140.47 96.1001 140.11 99.2401 140.11C102.38 140.11 105.6 140.48 108.69 141.22L108.92 141.27L109.06 141.46C109.51 142.08 110.35 143.23 110.84 144.01C111.23 144.62 111.67 145.41 111.97 145.96L112.39 146.74L111.51 146.88C110.22 147.08 108.23 147.47 106.1 148.16C103.04 149.15 100.49 150.46 99.5301 150.98L99.2301 151.14L98.9301 150.98L98.9401 150.97Z" fill="#FFFFFC"></path> <path d="M99.24 216.81C95.5 216.81 92.06 216.05 91.09 215.82L90.93 215.78L90.81 215.66C90.17 215.05 87.92 212.86 86.15 210.38C84.52 208.1 83.37 205.89 82.83 204.77L82.66 204.43L90.93 193.07L91.28 193.1C92.92 193.22 96.99 193.5 99.43 193.5C101.57 193.5 105.22 193.25 107.21 193.1L107.56 193.07L115.82 204.43L115.66 204.77C115.19 205.75 113.92 208.27 112.36 210.38C110.58 212.81 108.48 214.88 107.67 215.66L107.55 215.77L107.39 215.81C106.49 216.04 103.25 216.79 99.25 216.79L99.24 216.81Z" fill="#D60926"></path> <path d="M81.5 203.82C80.15 203.63 77.51 203.18 75.04 202.37C72.02 201.38 69.42 199.99 68.69 199.59L68.55 199.51L68.46 199.37C67.96 198.55 66.22 195.58 65.03 191.94C63.85 188.32 63.5 184.84 63.42 183.86V183.69L63.48 183.54C63.95 182.53 65.26 179.91 67.17 177.3C68.72 175.18 70.62 173.3 71.37 172.6L71.64 172.34L85 176.69L85.08 177.03C85.47 178.6 86.46 182.48 87.13 184.6C87.8 186.73 89.36 190.61 90 192.18L90.13 192.5L81.87 203.86L81.5 203.81V203.82Z" fill="#005189"></path> <path d="M71.95 171.42L71.88 171.05C71.65 169.81 71.26 167.31 71.26 164.42C71.26 161.05 71.76 158.34 71.91 157.59L71.94 157.43L72.05 157.31C72.7 156.54 75.08 153.87 78.23 151.65C81.63 149.25 84.45 148.02 85.23 147.7L85.38 147.64L85.54 147.66C86.33 147.75 89.16 148.13 92.24 149.11C94.83 149.94 97.23 151.15 98.43 151.79L98.76 151.97V166L98.46 166.18C96.68 167.3 93.42 169.36 91.65 170.63C90.05 171.78 87.16 174.2 85.57 175.54L85.3 175.77L71.94 171.42H71.95Z" fill="#FFFFFC"></path> <path d="M112.91 175.55C111.66 174.49 108.54 171.87 106.7 170.51C104.88 169.17 101.43 167.04 100.03 166.18L99.73 166V151.97L100.06 151.79C101 151.28 103.51 150.01 106.41 149.07C109.44 148.09 112.17 147.74 112.94 147.66L113.09 147.64L113.23 147.7C114.04 148.02 116.96 149.25 120.3 151.65C123.45 153.92 125.63 156.35 126.42 157.29L126.53 157.42L126.56 157.58C126.76 158.65 127.23 161.44 127.23 164.11C127.23 167.05 126.83 169.73 126.6 171.07L126.53 171.44L113.18 175.78L112.91 175.55Z" fill="#FFFFFC"></path> <path d="M99.43 192.54C97.18 192.54 93.45 192.29 91.42 192.15L91.03 192.12L90.88 191.76C90.09 189.83 88.69 186.3 88.06 184.32C87.4 182.22 86.43 178.42 86.05 176.88L85.96 176.5L86.26 176.25C87.51 175.19 90.6 172.6 92.22 171.43C94.02 170.14 97.5 167.94 98.92 167.06L99.25 166.85L99.58 167.05C100.96 167.9 104.37 170.01 106.13 171.3C107.95 172.64 111.01 175.21 112.24 176.25L112.53 176.5L112.44 176.88C112.06 178.44 111.12 182.26 110.52 184.13C109.88 186.1 108.13 190.47 107.6 191.76L107.45 192.12L107.06 192.15C105.11 192.3 101.53 192.54 99.43 192.54Z" fill="#005189"></path> <path d="M50.44 150.39L41.64 144.67L42.88 142.77L51.68 148.49L53.75 145.31L55.36 146.36L49.96 154.66L48.35 153.61L50.44 150.4V150.39Z" fill="#005189"></path> <path d="M34.39 159.9L35.23 157.81L40.52 159.92L42.34 155.35L37.05 153.24L37.89 151.15L49.44 155.76L48.61 157.85L44.07 156.04L42.25 160.61L46.79 162.42L45.95 164.51L34.4 159.9H34.39Z" fill="#005189"></path> <path d="M31.74 172.29C31.91 170.65 32.29 168.67 32.64 166.89C32.95 165.28 34.03 164.46 35.46 164.72L43.1 166.2C44.53 166.49 45.22 167.67 44.91 169.26C44.57 171.05 44.18 173.03 43.73 174.61L42.05 174.18L42.97 169.41C43.09 168.77 42.88 168.47 42.12 168.33L39.98 167.92L39.01 172.92L37.31 172.59L38.28 167.59L35.55 167.06C34.79 166.91 34.48 167.11 34.36 167.74L33.44 172.52L31.74 172.3V172.29Z" fill="#005189"></path> <path d="M31.57 188.18L35.34 186.92C36.13 186.61 36.4 186.16 36.35 185.41L36.2 183.18L31.24 183.53L31.08 181.3L43.47 180.43C43.71 181.84 43.8 182.81 43.95 184.93C44.16 187.98 43.44 189.3 40.62 189.49C38.77 189.62 37.67 189.08 37.33 187.39H37.24C37.14 188.02 36.69 188.83 35.52 189.18L31.72 190.56L31.55 188.17L31.57 188.18ZM38.2 185.28C38.33 186.86 38.79 187.33 40.32 187.23C41.85 187.12 42.21 186.59 42.1 185.01L41.95 182.78L38.05 183.05L38.21 185.28H38.2Z" fill="#005189"></path> <path d="M39.6301 202.21C36.0601 203.2 34.3901 202.37 33.4801 199.1C32.5301 195.68 33.5201 194.07 37.0901 193.07L44.3701 191.05L44.9701 193.22L37.6901 195.24C35.3801 195.88 34.8101 196.69 35.3101 198.5C35.8001 200.27 36.7101 200.67 39.0201 200.03L46.3001 198.01L46.9101 200.19L39.6301 202.21Z" fill="#005189"></path> <path d="M51.02 209.15L49.52 209.73C49.09 208.8 48.49 207.49 47.94 206.39C47.27 205.04 46.94 204.58 45.75 205.17C44.77 205.66 44.73 206.14 44.88 207.15L45.29 209.62C45.6 211.66 44.82 212.71 43.19 213.52C40.66 214.78 39.54 213.97 38.11 211.12C37.77 210.44 37.15 209.11 36.67 207.33L38.22 206.72C39.22 208.85 39.53 209.51 39.91 210.28C40.63 211.73 41.04 212.03 42.18 211.46C43.2 210.95 43.2 210.49 43.06 209.55L42.65 206.96C42.36 205.05 43.1 203.94 44.76 203.12C47.31 201.85 48.32 202.8 49.64 205.46C50.17 206.52 50.72 207.8 51.01 209.14L51.02 209.15Z" fill="#005189"></path> <path d="M56.73 217.19L55.36 218.03C54.78 217.18 53.95 216 53.23 215.02C52.33 213.8 51.93 213.41 50.85 214.2C49.97 214.85 50.01 215.34 50.34 216.3L51.17 218.66C51.83 220.61 51.24 221.79 49.78 222.87C47.5 224.55 46.26 223.95 44.36 221.39C43.91 220.78 43.06 219.57 42.28 217.91L43.7 217.04C45.06 218.97 45.47 219.56 45.98 220.25C46.95 221.55 47.4 221.78 48.43 221.02C49.34 220.35 49.27 219.88 48.97 218.99L48.12 216.51C47.51 214.68 48.04 213.46 49.53 212.35C51.82 210.66 52.98 211.41 54.75 213.8C55.46 214.76 56.22 215.91 56.74 217.19H56.73Z" fill="#005189"></path> <path d="M49.64 227.4L58.56 218.76L60.12 220.38L51.2 229.02L49.63 227.4H49.64Z" fill="#005189"></path> <path d="M57.9601 230.48L55.0001 232.63L53.1801 231.22L63.3701 224.15C63.6901 223.92 64.0701 223.95 64.3701 224.18L66.1101 225.53C66.4101 225.76 66.5301 226.13 66.3901 226.5L62.0901 238.13L60.2701 236.72L61.6101 233.32L57.9701 230.5L57.9601 230.48ZM63.9601 227.36C64.1001 227.03 64.2301 226.66 64.4001 226.35L64.0201 226.05L63.1401 226.71L59.5401 229.34L62.3301 231.5L63.9801 227.35L63.9601 227.36Z" fill="#005189"></path> <path d="M74.53 243.54C74.29 244.03 73.91 244.16 73.42 243.92L71.82 243.15C71.38 242.94 71.25 242.63 71.27 242.13L71.44 233.75C71.44 233.19 71.44 232.33 71.58 231.76L71.39 231.67C71.19 232.28 70.94 232.85 70.67 233.4L67.07 240.86L65.08 239.9L70.12 229.46C70.35 228.97 70.76 228.85 71.24 229.08L72.81 229.84C73.25 230.05 73.37 230.35 73.36 230.86L73.19 239C73.17 239.59 73.16 240.43 73.11 241.14L73.31 241.23C73.56 240.59 73.82 239.97 74.11 239.37L77.6 232.14L79.58 233.1L74.54 243.54H74.53Z" fill="#005189"></path> <path d="M88.6 237.28C87.82 237.14 87.51 237.35 87.37 238.11L86.93 240.46L91.74 241.35L91.42 243.07L86.61 242.18L85.63 247.49L83.4 247.08L85.22 237.24C85.5 235.7 86.69 235.02 88.28 235.32C90.02 235.64 91.93 235.99 93.45 236.44L93.02 238.1L88.6 237.28Z" fill="#005189"></path> <path d="M104.66 242.64C104.68 247.57 103.36 249.09 99.55 249.11C95.77 249.12 94.43 247.62 94.41 242.68C94.39 237.75 95.72 236.23 99.5 236.21C103.3 236.2 104.64 237.7 104.66 242.64ZM96.79 242.67C96.8 246.13 97.46 247.19 99.55 247.18C101.66 247.18 102.3 246.11 102.29 242.65C102.28 239.19 101.62 238.13 99.52 238.14C97.43 238.14 96.79 239.21 96.8 242.67H96.79Z" fill="#005189"></path> <path d="M117.27 240.19C118.31 245.01 117.33 246.77 113.62 247.57C109.93 248.37 108.3 247.18 107.26 242.36C106.22 237.54 107.2 235.78 110.89 234.98C114.6 234.17 116.22 235.37 117.27 240.19ZM109.58 241.86C110.31 245.24 111.17 246.14 113.21 245.69C115.27 245.24 115.67 244.07 114.94 240.69C114.21 237.31 113.35 236.41 111.29 236.86C109.25 237.3 108.84 238.48 109.58 241.85V241.86Z" fill="#005189"></path> <path d="M122.94 233.28L127.08 242.92L125 243.81L120.86 234.17L117.37 235.67L116.61 233.9L125.7 230L126.46 231.77L122.94 233.28Z" fill="#005189"></path> <path d="M135.52 230.69C137.17 229.78 138.34 230.4 139.44 232.04C140.87 234.16 140.28 235.38 137.87 237C135.99 238.27 134.99 238.91 133.68 239.64L126.75 229.33C127.78 228.48 128.67 227.87 130.31 226.76C132.91 225.01 134.22 224.96 135.64 227.08C136.64 228.56 136.64 229.66 135.46 230.62L135.5 230.68L135.52 230.69ZM129.53 229.49L131.48 232.39L133.35 231.13C134.6 230.29 134.82 229.71 134.03 228.53C133.26 227.38 132.63 227.41 131.25 228.33L129.53 229.49ZM136.55 235.7C137.94 234.77 138.18 234.19 137.35 232.95C136.42 231.58 135.72 231.53 134.29 232.47L132.39 233.75L134.58 237.01L136.55 235.71V235.7Z" fill="#005189"></path> <path d="M143.36 227.96L145.13 231.17L143.5 232.8L137.75 221.8C137.56 221.46 137.63 221.07 137.9 220.81L139.45 219.25C139.72 218.98 140.1 218.9 140.44 219.1L151.46 224.81L149.83 226.44L146.62 224.69L143.36 227.96ZM141.01 221.62C140.7 221.44 140.35 221.26 140.07 221.06L139.73 221.4L140.28 222.35L142.44 226.26L144.93 223.76L141.02 221.61L141.01 221.62Z" fill="#005189"></path> <path d="M152.25 218.7C152.87 219.13 153.25 219.06 153.7 218.41L156.15 214.85L157.64 215.77C156.87 217.14 155.92 218.55 154.97 219.93C153.79 221.63 152.49 221.62 151.26 220.77L143.12 215.15L144.4 213.3L152.25 218.71V218.7Z" fill="#005189"></path> <path d="M157.63 209.7C158.31 210.02 158.67 209.89 159.01 209.18L160.85 205.27L162.47 205.93C161.93 207.41 161.23 208.95 160.52 210.46C159.64 212.33 158.35 212.52 157 211.89L148.06 207.68L149.02 205.64L157.64 209.7H157.63Z" fill="#005189"></path> <path d="M162.14 188.19C165.78 188.9 166.9 190.38 166.25 193.72C165.57 197.2 163.96 198.21 160.32 197.5L152.9 196.05L153.33 193.84L160.75 195.29C163.1 195.75 163.98 195.28 164.34 193.44C164.69 191.64 164.05 190.87 161.7 190.41L154.27 188.96L154.71 186.73L162.13 188.18L162.14 188.19Z" fill="#005189"></path> <path d="M166.31 174.36C166.85 174.35 167.14 174.63 167.16 175.17L167.2 176.95C167.2 177.44 167 177.69 166.53 177.9L158.99 181.55C158.49 181.79 157.72 182.19 157.15 182.33V182.55C157.78 182.45 158.41 182.42 159.02 182.4L167.3 182.23L167.34 184.44L155.75 184.68C155.21 184.69 154.91 184.39 154.9 183.85L154.86 182.1C154.86 181.61 155.06 181.38 155.52 181.15L162.85 177.61C163.39 177.36 164.13 176.99 164.79 176.7V176.49C164.1 176.56 163.44 176.61 162.77 176.62L154.74 176.79L154.7 174.59L166.29 174.35L166.31 174.36Z" fill="#005189"></path> <path d="M166.4 170.06L154.17 172.25L153.77 170.04L166 167.84L166.4 170.06Z" fill="#005189"></path> <path d="M156.17 156.29C160.84 154.71 162.7 155.49 163.92 159.09C165.13 162.67 164.12 164.42 159.45 165.99C154.78 167.57 152.92 166.79 151.71 163.21C150.49 159.61 151.5 157.87 156.17 156.29ZM158.69 163.74C161.96 162.63 162.76 161.68 162.09 159.7C161.42 157.71 160.2 157.43 156.93 158.54C153.66 159.64 152.86 160.6 153.53 162.59C154.2 164.57 155.41 164.84 158.68 163.74H158.69Z" fill="#005189"></path> <path d="M154.3 142.06C154.76 141.78 155.16 141.88 155.44 142.35L156.36 143.88C156.61 144.3 156.55 144.62 156.25 145.03L151.51 151.94C151.2 152.4 150.73 153.12 150.3 153.53L150.41 153.71C150.9 153.31 151.44 152.97 151.96 152.66L159.07 148.41L160.21 150.31L150.26 156.26C149.8 156.54 149.39 156.42 149.11 155.96L148.22 154.46C147.97 154.04 148.03 153.73 148.32 153.3L152.93 146.6C153.27 146.12 153.74 145.42 154.17 144.85L154.06 144.67C153.5 145.07 152.95 145.44 152.37 145.78L145.48 149.9L144.35 148.02L154.3 142.07V142.06Z" fill="#005189"></path> </g> <defs> <clipPath id="clip0_1144_421"> <rect width="198.48" height="249.11" fill="white"></rect> </clipPath> </defs> </svg> 